<svg width="200" height="198" viewBox="0 0 398 390" fill="none" xmlns="http://www.w3.org/2000/svg">
<path d="M130.186 367.189C61.4064 367.189 5.64622 311.353 5.64622 242.471C5.64622 173.589 61.4064 117.753 130.186 117.753C198.965 117.753 254.725 173.589 254.725 242.471C254.725 311.353 198.965 367.189 130.186 367.189Z" stroke="#fffff" stroke-width="1"/>
<path d="M143.453 372.171C66.4308 372.171 3.98815 309.643 3.98815 232.506C3.98816 155.369 66.4308 92.8413 143.453 92.8413C220.476 92.8413 282.918 155.369 282.918 232.506C282.918 309.643 220.476 372.171 143.453 372.171Z" stroke="#ffff" stroke-width="1"/>
<path d="M154.232 377.153C69.8826 377.153 1.49993 308.677 1.49993 224.203C1.49994 139.728 69.8826 71.2518 154.232 71.2518C238.582 71.2518 306.965 139.728 306.965 224.203C306.965 308.677 238.582 377.153 154.232 377.153Z" stroke="#fffff" stroke-width="1"/>
<path d="M169.988 380.475C79.227 380.475 5.64687 306.794 5.64687 215.899C5.64688 125.004 79.227 51.3227 169.988 51.3227C260.749 51.3227 334.33 125.004 334.33 215.899C334.33 306.794 260.749 380.475 169.988 380.475Z" stroke="#ffff" stroke-width="1"/>
<path d="M185.328 383.796C88.3844 383.796 9.79247 305.096 9.79247 208.01C9.79248 110.924 88.3845 32.2238 185.328 32.2238C282.272 32.2238 360.864 110.924 360.864 208.01C360.864 305.096 282.272 383.796 185.328 383.796Z" stroke="#ffff" stroke-width="1"/>
<path d="M202.741 387.948C96.1806 387.948 9.79247 301.441 9.79247 194.724C9.79248 88.0074 96.1807 1.50002 202.741 1.50002C309.302 1.50003 395.69 88.0074 395.69 194.724C395.69 301.441 309.302 387.948 202.741 387.948Z" stroke="#ffff" stroke-width="1"/>
</svg>
