<svg width="20" height="20" viewBox="0 0 20 20" fill="none" xmlns="http://www.w3.org/2000/svg">
    <g clip-path="url(#clip0_121_4407)">
        <path fill-rule="evenodd" clip-rule="evenodd"
            d="M10.0001 11.7682L14.4192 16.1873C14.6537 16.4218 14.9718 16.5536 15.3034 16.5536C15.635 16.5536 15.9531 16.4218 16.1876 16.1873C16.4221 15.9529 16.5538 15.6348 16.5538 15.3032C16.5538 14.9716 16.4221 14.6535 16.1876 14.419L11.7667 9.99985L16.1867 5.58068C16.3028 5.46457 16.3948 5.32674 16.4576 5.17505C16.5204 5.02337 16.5527 4.8608 16.5527 4.69664C16.5526 4.53247 16.5203 4.36992 16.4574 4.21826C16.3946 4.06661 16.3024 3.92882 16.1863 3.81276C16.0702 3.69671 15.9324 3.60466 15.7807 3.54187C15.629 3.47908 15.4664 3.44679 15.3023 3.44683C15.1381 3.44686 14.9756 3.47924 14.8239 3.5421C14.6723 3.60496 14.5345 3.69707 14.4184 3.81318L10.0001 8.23235L5.58091 3.81318C5.46566 3.69374 5.32777 3.59845 5.1753 3.53287C5.02282 3.46728 4.85882 3.43272 4.69284 3.4312C4.52687 3.42968 4.36226 3.46123 4.20861 3.52401C4.05496 3.58679 3.91535 3.67954 3.79793 3.79685C3.68051 3.91416 3.58763 4.05368 3.5247 4.20727C3.46178 4.36086 3.43008 4.52545 3.43144 4.69142C3.4328 4.8574 3.46721 5.02144 3.53264 5.17397C3.59808 5.32651 3.69324 5.46448 3.81258 5.57985L8.23341 9.99985L3.81341 14.4198C3.69408 14.5352 3.59892 14.6732 3.53348 14.8257C3.46804 14.9783 3.43364 15.1423 3.43227 15.3083C3.43091 15.4742 3.46261 15.6388 3.52554 15.7924C3.58846 15.946 3.68134 16.0855 3.79876 16.2028C3.91618 16.3202 4.05579 16.4129 4.20944 16.4757C4.36309 16.5385 4.5277 16.57 4.69368 16.5685C4.85965 16.567 5.02366 16.5324 5.17613 16.4668C5.32861 16.4012 5.46649 16.306 5.58174 16.1865L10.0001 11.7682Z"
            fill="#B8BABF" />
    </g>
    <defs>
        <clipPath id="clip0_121_4407">
            <rect width="20" height="20" fill="white" />
        </clipPath>
    </defs>
</svg>